<svg xmlns="http://www.w3.org/2000/svg" width="24" height="24" viewBox="0 0 24 24">
    <g fill="none" fill-rule="evenodd">
        <g fill="#FFF">
            <g>
                <g>
                    <g>
                        <g>
                            <g>
                                <path d="M22.245 5.111c-.643-.287-1.398.001-1.685.644l-1.546 3.456h-1.541c.414 0 .749-.335.749-.749s-.335-.75-.75-.75h-2.791c-.414 0-.75.336-.75.75s.336.75.75.75H2.276C1.57 9.211 1 9.781 1 10.486c0 .66.5 1.202 1.143 1.269v4.441c-.507.183-.87.668-.87 1.237 0 .724.59 1.314 1.314 1.314.725 0 1.315-.59 1.315-1.314 0-.569-.364-1.054-.87-1.237V14.11h16.582v2.087c-.507.183-.87.668-.87 1.237 0 .724.59 1.314 1.314 1.314.725 0 1.314-.59 1.314-1.314 0-.569-.363-1.054-.87-1.237v-4.6c.316-.179.548-.488.622-.855l1.765-3.945c.287-.644-.001-1.398-.644-1.686zM3.322 17.434c0 .405-.33.734-.735.734-.405 0-.734-.33-.734-.734 0-.405.33-.735.734-.735.405 0 .735.33.735.735zm-.29-4.175h16.582v-1.496H3.032v1.496zm17.76 4.175c0 .405-.329.734-.734.734-.405 0-.734-.33-.734-.734 0-.405.33-.735.734-.735.405 0 .734.33.734.735z" transform="translate(-244 -471) translate(0 357) translate(73.5 90) translate(.5) translate(136) translate(34 24)"/>
                            </g>
                        </g>
                    </g>
                </g>
            </g>
        </g>
    </g>
</svg>
