<svg xmlns="http://www.w3.org/2000/svg" width="36" height="36" viewBox="0 0 36 36">
    <g fill="none" fill-rule="evenodd">
        <g>
            <g transform="translate(-144 -97) translate(144 97)">
                <rect width="36" height="36" fill="#A199BA" rx="18"/>
                <g fill="#FFF">
                    <path d="M10.281 5.409c.243-.255.57-.4.922-.408.352-.008.685.12.94.363.254.243.4.57.408.922.009.351-.12.685-.363.94-.243.254-.57.4-.922.408h-.033c-.71 0-1.297-.57-1.315-1.285-.009-.352.12-.686.363-.94m.952 2.725h.045c.485-.012.937-.212 1.272-.563.335-.352.512-.812.5-1.297-.01-.486-.21-.937-.562-1.272-.351-.335-.801-.517-1.297-.5-.485.01-.937.21-1.272.562-.335.351-.513.812-.501 1.297.024.987.834 1.773 1.815 1.773m2.327 9.036l.433.25c-.559.973-1.508 1.671-2.604 1.917-.295.066-.592.098-.886.098-.812 0-1.604-.248-2.293-.73-1.202-.84-1.861-2.314-1.68-3.756.194-1.545 1.22-2.817 2.68-3.318l.163.472c-1.277.44-2.177 1.554-2.347 2.909-.159 1.26.418 2.549 1.47 3.284.823.574 1.812.77 2.784.553.96-.215 1.79-.827 2.28-1.679m3.687.502c-.06.2-.201.355-.397.439-.297.126-.67 0-.865-.297l-1.22-1.85c-.104-.16-.28-.253-.47-.253h-.013l-2.82.068c-.18.008-.359-.063-.492-.19-.134-.128-.21-.3-.214-.484l-.12-4.966c-.009-.355.224-.672.542-.738.208-.043.413.005.576.135.161.128.256.319.261.524l.09 3.76c.008.31.28.539.577.548l1.568-.037c.67-.017 1.304.316 1.668.873l1.244 1.888c.113.172.144.384.085.58m.333-.855l-1.244-1.887c-.458-.7-1.27-1.121-2.1-1.1l-1.566.038c-.042.005-.063-.026-.065-.061l-.09-3.76c-.009-.353-.173-.682-.45-.903-.276-.22-.635-.304-.987-.232-.56.115-.956.636-.941 1.24l.12 4.965c.007.318.138.614.368.833.23.22.52.333.85.329l2.819-.068c.013-.006.042.01.054.028l1.219 1.85c.241.365.635.573 1.034.572.15 0 .301-.03.445-.09.33-.141.577-.416.68-.754.102-.34.048-.704-.146-1" transform="translate(6 6)"/>
                </g>
            </g>
        </g>
    </g>
</svg>
