<svg xmlns="http://www.w3.org/2000/svg" width="36" height="36" viewBox="0 0 36 36">
    <g fill="none" fill-rule="evenodd">
        <g>
            <g transform="translate(0 -97) translate(0 97)">
                <rect width="36" height="36" fill="#D3CAC3" rx="18"/>
                <g fill="#FFF">
                    <path d="M19.178 7.856L12 3.71 4.822 7.856v8.288L12 20.29l7.178-4.145V7.856zM12 4.289l6.678 3.856v7.71L12 19.711l-6.678-3.856v-7.71L12 4.289zM12.75 2v20h-1V2h1zM3.465 6.783l17.32 10-.25.434-17.32-10 .25-.434zm17.07 0l.25.434-17.32 10-.25-.434 17.32-10z" transform="translate(6 6)"/>
                </g>
            </g>
        </g>
    </g>
</svg>
