<svg xmlns="http://www.w3.org/2000/svg" width="32" height="32" viewBox="0 0 32 32">
    <g fill="none" fill-rule="evenodd">
        <g fill="#D31145">
            <g>
                <g>
                    <path d="M18.448 25.031c.392.117.616.534.5.931C18.6 27.17 17.509 28 16.27 28c-1.24 0-2.33-.83-2.68-2.038-.115-.397.11-.814.5-.93.36-.108.734.075.882.412l.035.096c.165.569.679.96 1.263.96.54 0 1.019-.333 1.219-.832l.044-.128c.115-.398.525-.626.916-.509zM16.278 4c.38 0 .694.282.743.648l.007.102v1.536c4.129.39 7.36 3.919 7.36 8.214 0 3.012.268 5.145.704 6.541.143.458.29.79.429 1.011l.032.051.038.058c.006.01.006.011-.002.005.544.443.235 1.335-.462 1.335H7.407c-.616 0-.961-.72-.582-1.213l.034-.047c.131-.197.347-.66.578-1.452.44-1.517.708-3.586.708-6.289l.003-.252c.124-4.189 3.322-7.593 7.38-7.964V4.75c0-.414.336-.75.75-.75zm-.011 3.75c-3.67 0-6.646 3.022-6.646 6.75 0 2.84-.286 5.052-.768 6.713-.07.24-.14.46-.211.659L8.594 22h15.265l-.1-.279-.074-.227c-.487-1.558-.773-3.84-.773-6.995 0-3.728-2.975-6.75-6.645-6.75z" transform="translate(-60 -650) translate(24 636) translate(36 14)"/>
                </g>
            </g>
        </g>
    </g>
</svg>
