<svg xmlns="http://www.w3.org/2000/svg" width="32" height="32" viewBox="0 0 32 32">
    <g fill="none" fill-rule="evenodd">
        <g fill="#D31145">
            <g>
                <g>
                    <g>
                        <path d="M7.657 6.008l-.688.688c-1.794 1.795-2.147 4.564-.886 6.744l.138.225c3.226 4.775 7.334 8.885 12.105 12.11l.048.029c2.186 1.392 5.074 1.075 6.925-.776l.687-.687c.9-.901.9-2.36 0-3.261l-2.898-2.897c-.845-.845-2.193-.902-3.106-.141l-.133.12c-.204.204-.451.306-.71.306-.257 0-.504-.102-.686-.285l-4.638-4.638c-.356-.356-.38-.926-.06-1.31l.081-.088c.412-.41.655-.996.655-1.608 0-.612-.243-1.198-.676-1.63l-2.897-2.9c-.901-.9-2.36-.9-3.26-.001zm2.319.943l2.896 2.9c.183.183.286.43.286.688 0 .221-.076.434-.212.605l-.195.215c-.78.935-.723 2.283.121 3.128l4.638 4.639c.432.432 1.018.675 1.63.675.55 0 1.08-.197 1.496-.551l.222-.204c.362-.3.931-.276 1.288.08l2.898 2.896c.38.38.38.996 0 1.376l-.688.688c-1.36 1.36-3.457 1.632-5.113.686l-.208-.126c-4.416-2.986-8.272-6.788-11.342-11.192l-.37-.539c-1.062-1.669-.82-3.867.589-5.276l.687-.688c.38-.38.996-.38 1.377 0z" transform="translate(-172 -650) translate(24 636) translate(112) translate(36 14)"/>
                    </g>
                </g>
            </g>
        </g>
    </g>
</svg>
