<svg xmlns="http://www.w3.org/2000/svg" width="24" height="24" viewBox="0 0 24 24">
    <g fill="none" fill-rule="evenodd">
        <g fill="#FFF">
            <g>
                <g>
                    <g>
                        <g>
                            <g>
                                <path d="M16.55.64c.244-.545.882-.789 1.426-.546.544.244.788.882.545 1.426L17.028 4.86c-.063.31-.259.572-.526.723v3.893c.228.082.422.236.553.435h.268c.35 0 .634.285.634.635 0 .35-.284.634-.634.634h1.305l1.307-2.925c.243-.544.882-.788 1.426-.544.544.243.788.881.545 1.426l-1.493 3.338c-.063.31-.26.572-.526.724v3.892c.428.154.736.565.736 1.046 0 .613-.5 1.112-1.112 1.112-.614 0-1.112-.499-1.112-1.112 0-.48.307-.892.736-1.046v-1.766H5.104v1.766c.429.154.736.565.736 1.046 0 .613-.5 1.112-1.112 1.112-.613 0-1.112-.499-1.112-1.112 0-.48.307-.892.736-1.046v-3.758c-.544-.057-.967-.516-.967-1.074 0-.596.483-1.08 1.079-1.08h10.497c-.35 0-.634-.283-.634-.633 0-.35.284-.634.634-.634h.236c.131-.2.325-.354.553-.436V7.708H1.72v1.767c.428.154.735.565.735 1.046 0 .613-.499 1.112-1.112 1.112-.613 0-1.112-.499-1.112-1.112 0-.481.307-.892.736-1.046V5.716C.424 5.66 0 5.201 0 4.643c0-.596.483-1.08 1.08-1.08h10.496c-.35 0-.634-.283-.634-.634 0-.35.284-.633.634-.633h2.363c.35 0 .633.283.633.633 0 .35-.283.634-.633.634h1.304zM4.728 17.514c-.343 0-.622.279-.622.621 0 .343.28.622.622.622.342 0 .621-.28.621-.622 0-.342-.279-.621-.621-.621zm14.783 0c-.343 0-.622.279-.622.621 0 .343.279.622.622.622.342 0 .621-.28.621-.622 0-.342-.279-.621-.621-.621zm-.376-4.177H5.104v1.266h14.03v-1.266zM1.343 9.899c-.342 0-.621.28-.621.622 0 .343.279.621.621.621.343 0 .622-.278.622-.621 0-.343-.28-.622-.622-.622zM15.75 5.722H1.72V6.99h14.03V5.722z" transform="translate(-108 -471) translate(0 357) translate(73.5 90) translate(.5) translate(34 24) translate(1 2)"/>
                            </g>
                        </g>
                    </g>
                </g>
            </g>
        </g>
    </g>
</svg>
