<svg xmlns="http://www.w3.org/2000/svg" xmlns:xlink="http://www.w3.org/1999/xlink" width="28" height="28" viewBox="0 0 28 28">
    <defs>
        <path id="ezvp474t8a" d="M0 0H28V28H0z"/>
    </defs>
    <g fill="none" fill-rule="evenodd">
        <g>
            <g>
                <g>
                    <g>
                        <g transform="translate(-263 -519) translate(0 357) translate(15 84) translate(13) translate(235 78)">
                            <mask id="c7vkw2nxcb" fill="#fff">
                                <use xlink:href="#ezvp474t8a"/>
                            </mask>
                            <path fill="#333D47" d="M19.955 13.183c-1.164 0-2.11-.946-2.11-2.11s.946-2.11 2.11-2.11c1.163 0 2.11.946 2.11 2.11s-.947 2.11-2.11 2.11m0-4.804c-1.486 0-2.694 1.208-2.694 2.694 0 1.386 1.053 2.532 2.402 2.678v6.13c0 .722-.588 1.31-1.31 1.31-.722 0-1.31-.588-1.31-1.31v-3.017c0-1.265-1.029-2.294-2.293-2.294-1.265 0-2.293 1.029-2.293 2.294v4.618c0 .723-.589 1.31-1.311 1.31s-1.31-.587-1.31-1.31V15.36c2.233-.151 4.004-2.016 4.004-4.286V7.87c0-1.387-1.053-2.532-2.403-2.678v-.525h-.583v2.002h.583v-.89c1.027.143 1.82 1.026 1.82 2.09v3.204c0 2.047-1.666 3.712-3.713 3.712-2.046 0-3.71-1.665-3.71-3.712V7.87c0-1.065.792-1.948 1.818-2.09v.889h.583V4.667h-.583v.525C6.303 5.338 5.25 6.482 5.25 7.87v3.203c0 2.27 1.77 4.135 4.003 4.286v6.123c0 1.044.85 1.893 1.893 1.893 1.044 0 1.894-.849 1.894-1.893v-4.618c0-.944.767-1.71 1.71-1.71.942 0 1.71.766 1.71 1.71v3.017c0 1.044.85 1.893 1.893 1.893 1.044 0 1.893-.85 1.893-1.893v-6.13c1.35-.146 2.402-1.292 2.402-2.678 0-1.486-1.208-2.694-2.693-2.694" mask="url(#c7vkw2nxcb)" opacity=".8"/>
                        </g>
                    </g>
                </g>
            </g>
        </g>
    </g>
</svg>
