<svg xmlns="http://www.w3.org/2000/svg" width="28" height="28" viewBox="0 0 28 28">
    <g fill="none" fill-rule="evenodd" opacity=".8">
        <g fill="#333D47">
            <g>
                <g>
                    <g>
                        <g>
                            <path d="M11.995 6.31c.283-.297.665-.466 1.075-.475.411-.01.799.14 1.097.423.296.283.466.665.475 1.075.01.41-.14.8-.423 1.097-.284.297-.665.466-1.075.476h-.039c-.829 0-1.513-.664-1.534-1.5-.01-.41.14-.799.424-1.096m1.11 3.18h.052c.567-.015 1.093-.248 1.484-.658.391-.41.598-.947.585-1.513-.014-.566-.247-1.093-.657-1.483-.41-.391-.935-.603-1.513-.585-.566.014-1.093.247-1.484.657-.391.41-.598.948-.585 1.513.029 1.151.974 2.069 2.118 2.069m2.715 10.542l.505.29c-.652 1.136-1.76 1.951-3.038 2.237-.344.077-.69.115-1.034.115-.947 0-1.87-.29-2.675-.85-1.402-.98-2.171-2.701-1.96-4.383.227-1.803 1.424-3.287 3.127-3.872l.19.551c-1.49.513-2.54 1.813-2.738 3.394-.185 1.47.488 2.973 1.715 3.83.96.67 2.114.9 3.248.646 1.119-.25 2.089-.964 2.66-1.958m4.301.586c-.07.232-.234.413-.463.511-.347.148-.782 0-1.01-.346l-1.421-2.159c-.123-.185-.327-.295-.55-.295h-.014l-3.29.08c-.21.01-.42-.074-.574-.223-.157-.149-.245-.349-.25-.564l-.14-5.794c-.01-.414.261-.784.632-.86.243-.05.481.006.672.157.188.15.299.372.305.612l.105 4.385c.009.363.327.63.673.64l1.829-.043c.781-.02 1.522.37 1.946 1.019l1.452 2.203c.131.2.168.447.098.677m.39-.998l-1.453-2.202c-.534-.817-1.482-1.308-2.449-1.282l-1.828.044c-.049.005-.073-.031-.075-.072l-.105-4.386c-.01-.412-.202-.797-.526-1.054-.322-.256-.74-.355-1.151-.271-.654.135-1.115.743-1.098 1.446l.14 5.793c.008.371.162.716.43.973.268.255.607.388.991.383l3.289-.08c.016-.006.049.012.064.033l1.421 2.158c.282.427.742.669 1.206.668.175 0 .352-.034.52-.106.385-.164.673-.484.792-.879.12-.395.058-.82-.169-1.166" transform="translate(-221 -597) translate(0 357) translate(15 84) translate(13) translate(193 156)"/>
                        </g>
                    </g>
                </g>
            </g>
        </g>
    </g>
</svg>
