<svg xmlns="http://www.w3.org/2000/svg" width="24" height="24" viewBox="0 0 24 24">
    <g fill="none" fill-rule="evenodd">
        <g fill="#5B636B">
            <g>
                <path d="M12 11.875c.767 0 1.375.608 1.375 1.375 0 .769-.608 1.375-1.375 1.375s-1.375-.606-1.375-1.375c0-.767.608-1.375 1.375-1.375m4.813-5.5c1.146 0 2.062.916 2.062 2.063 0 1.146-.916 2.062-2.063 2.062-1.146 0-2.062-.916-2.062-2.063 0-1.146.916-2.062 2.063-2.062m-9.625 0c1.146 0 2.062.916 2.062 2.063 0 1.146-.916 2.062-2.063 2.062-1.146 0-2.062-.916-2.062-2.063 0-1.146.916-2.062 2.063-2.062m0-1.375C5.296 5 3.75 6.547 3.75 8.438c0 1.293.733 2.413 1.797 3C2.935 12.16 1 14.536 1 17.375h1.375c0-2.654 2.159-4.813 4.813-4.813.735 0 1.442.18 2.081.497-.005.065-.019.126-.019.191 0 .737.298 1.405.775 1.902-1.273.704-2.15 2.046-2.15 3.598H9.25C9.25 17.222 10.472 16 12 16s2.75 1.222 2.75 2.75h1.375c0-1.552-.877-2.894-2.15-3.598.477-.497.775-1.165.775-1.902 0-.065-.015-.127-.02-.191.64-.318 1.347-.496 2.082-.496 2.654 0 4.813 2.158 4.813 4.812H23c0-2.84-1.933-5.214-4.547-5.937 1.064-.587 1.797-1.707 1.797-3C20.25 6.546 18.703 5 16.812 5c-1.89 0-3.437 1.547-3.437 3.438 0 1.285.723 2.399 1.775 2.989-.294.084-.58.192-.857.319-.492-.747-1.337-1.246-2.293-1.246-.956 0-1.8.5-2.293 1.246-.278-.127-.563-.235-.857-.32 1.052-.59 1.775-1.703 1.775-2.989C10.625 6.548 9.078 5 7.187 5" transform="translate(0 -28) translate(0 28)"/>
            </g>
        </g>
    </g>
</svg>
