<svg xmlns="http://www.w3.org/2000/svg" width="24" height="24" viewBox="0 0 24 24">
    <g fill="none" fill-rule="evenodd">
        <g fill="#1F78AD">
            <g>
                <g>
                    <g>
                        <g>
                            <path d="M13.768 8.29l-4.435 6.956h.899l4.464-6.956h-.928zm.203 6.116c-.405 0-.695-.261-.695-.783s.29-.782.695-.782c.406 0 .696.26.696.782s-.29.783-.696.783zm0-2.522c-1.101 0-1.826.783-1.826 1.74 0 .956.696 1.738 1.826 1.738 1.101 0 1.826-.753 1.826-1.739-.029-.956-.725-1.739-1.826-1.739zM9.333 9.942c0-.522.29-.783.696-.783.406 0 .725.261.725.783 0 .493-.32.783-.725.783-.406 0-.696-.29-.696-.783zm2.522 0c0-.985-.725-1.74-1.826-1.74s-1.797.784-1.797 1.74c0 .957.696 1.74 1.797 1.74s1.826-.783 1.826-1.74zm8.493 2.87c-.406.347-.812.695-.928 1.188-.145.493.058 1.014.232 1.536.116.348.29.84.174.985-.087.175-.608.262-.956.349-.522.116-1.073.202-1.42.58-.349.347-.464.898-.58 1.42-.058.376-.174.87-.348.956-.174.087-.667-.087-.985-.203-.522-.174-1.044-.348-1.537-.232-.464.116-.84.551-1.188.928-.261.29-.58.667-.812.667-.232 0-.55-.407-.811-.667-.348-.406-.696-.812-1.189-.928-.116-.029-.232-.058-.348-.058-.377 0-.782.145-1.188.261-.348.116-.84.29-.986.174-.174-.087-.26-.609-.347-.985-.117-.522-.203-1.073-.58-1.42-.348-.349-.899-.464-1.42-.58-.377-.058-.87-.174-.957-.348-.087-.174.058-.638.174-.986.174-.521.348-1.043.232-1.536-.116-.464-.551-.84-.928-1.188-.29-.261-.666-.58-.666-.812 0-.203.405-.55.666-.812.406-.347.812-.695.928-1.188.145-.493-.058-1.014-.232-1.536-.116-.348-.29-.84-.174-.986.087-.174.609-.26.956-.348.522-.115 1.073-.202 1.421-.58.348-.347.463-.898.58-1.42.057-.376.173-.87.347-.956.174-.087.638.058.986.203.522.174 1.043.348 1.536.232.464-.116.84-.551 1.189-.928.26-.29.58-.666.811-.666.232 0 .551.405.812.666.347.406.696.812 1.188.928.493.145 1.015-.058 1.537-.232.347-.116.84-.29.985-.174.174.087.26.609.348.985.116.522.202 1.073.58 1.42.347.349.898.465 1.42.58.376.058.87.174.956.348.087.174-.058.638-.174.986-.174.522-.347 1.043-.232 1.536.116.464.551.84.928 1.188.29.261.666.58.666.812.03.232-.376.58-.666.84zm.638-2.348c-.29-.232-.58-.522-.638-.696-.058-.203.087-.609.203-.985.203-.58.435-1.247.116-1.797-.32-.551-.986-.696-1.624-.812-.376-.058-.782-.145-.927-.29-.145-.145-.232-.55-.29-.927-.116-.638-.26-1.305-.812-1.624-.55-.319-1.188-.087-1.797.116-.347.116-.753.261-.985.203-.203-.058-.464-.377-.696-.638C13.101 2.522 12.666 2 12 2s-1.101.522-1.536 1.014c-.232.29-.522.58-.696.638-.203.058-.608-.087-.985-.203-.61-.203-1.247-.435-1.797-.116-.551.32-.696.986-.812 1.624-.058.376-.145.782-.29.927-.145.145-.55.232-.927.29-.638.116-1.305.26-1.624.812-.319.55-.087 1.188.116 1.797.116.347.261.753.203.985-.058.203-.377.464-.638.696C2.522 10.899 2 11.334 2 12c0 .638.522 1.101 1.014 1.536.29.232.58.522.638.696.058.203-.087.609-.203.985-.203.58-.435 1.247-.116 1.797.32.551.986.696 1.624.812.376.058.782.145.927.29.145.145.232.55.29.927.116.638.26 1.305.812 1.624.55.319 1.188.087 1.797-.116.347-.117.753-.261.956-.203.203.058.464.376.696.638.435.492.87 1.014 1.536 1.014.667 0 1.102-.522 1.537-1.014.231-.29.521-.58.695-.638.203-.058.609.086.985.203.58.203 1.247.435 1.798.116.55-.32.695-.986.811-1.624.058-.376.145-.782.29-.927.145-.145.551-.232.928-.29.637-.116 1.304-.26 1.623-.812.319-.55.087-1.188-.116-1.797-.116-.347-.261-.753-.203-.985.058-.203.377-.464.638-.696.492-.435 1.014-.87 1.014-1.536.029-.638-.464-1.101-.985-1.536z" transform="translate(-16 -440) translate(0 57) translate(0 44) translate(16 305) translate(0 34)"/>
                        </g>
                    </g>
                </g>
            </g>
        </g>
    </g>
</svg>
