<svg xmlns="http://www.w3.org/2000/svg" width="36" height="36" viewBox="0 0 36 36">
    <g fill="none" fill-rule="evenodd">
        <g>
            <g transform="translate(-216 -97) translate(216 97)">
                <rect width="36" height="36" fill="#836F60" rx="18"/>
                <g fill="#FFF">
                    <path d="M11.26 7.503v-.1c.005-.302.204-.565.493-.65v1.4c-.289-.085-.488-.348-.493-.65zm1.48 1.853v.101c-.004.301-.204.565-.493.65V8.706c.289.085.489.349.494.65zm-.493 1.662v-.405c.554-.093.987-.576.987-1.156v-.101c0-.58-.433-1.063-.987-1.156V6.752c.287.087.483.351.483.65 0 .137.11.247.247.247.136 0 .247-.11.247-.247-.001-.571-.413-1.06-.977-1.156v-.405c0-.136-.11-.247-.247-.247-.136 0-.247.111-.247.247v.405c-.553.094-.987.576-.987 1.156v.101c0 .58.434 1.063.987 1.157v1.447c-.286-.087-.482-.35-.483-.65 0-.136-.11-.247-.247-.247-.136 0-.246.11-.246.247 0 .572.413 1.06.976 1.156v.405c0 .136.11.247.247.247s.247-.11.247-.247zm-2.702 3.623c1.02.331 1.823 1.124 2.167 2.14-1.532 1.082-3.652.718-4.735-.814-.188-.267-.337-.56-.442-.869.875-.619 1.991-.788 3.01-.457zM7.595 8.4c0-2.433 1.972-4.405 4.405-4.405 2.433 0 4.406 1.972 4.406 4.405 0 2.433-1.973 4.406-4.406 4.406-2.432-.003-4.403-1.974-4.405-4.406zm6.86 6.242c1.02-.331 2.135-.162 3.01.457-.602 1.777-2.531 2.728-4.308 2.125-.31-.105-.602-.254-.869-.443.344-1.015 1.148-1.808 2.167-2.139zM8.55 17.706c1.07.35 2.24.216 3.204-.364v3.118c0 .136.11.247.247.247s.247-.11.247-.247v-3.117c1.843 1.105 4.233.507 5.339-1.336.175-.293.311-.607.404-.935.028-.096-.006-.2-.085-.262-1.02-.8-2.37-1.039-3.603-.638-.856.278-1.561.838-2.055 1.572v-2.452c2.574-.13 4.652-2.275 4.652-4.893 0-2.701-2.198-4.899-4.9-4.899C9.3 3.5 7.1 5.698 7.1 8.4c0 2.618 2.08 4.764 4.653 4.892v2.456c-.493-.736-1.198-1.297-2.056-1.576-1.232-.401-2.583-.162-3.602.638-.08.062-.113.166-.085.262.354 1.247 1.307 2.235 2.54 2.634z" transform="translate(6 6)"/>
                </g>
            </g>
        </g>
    </g>
</svg>
