<svg xmlns="http://www.w3.org/2000/svg" width="28" height="28" viewBox="0 0 28 28">
    <g fill="none" fill-rule="evenodd">
        <g fill="#1F78AD">
            <g>
                <path d="M16.115 15.157c.035 1.176-.904 2.173-2.092 2.21h-.102v1.172h-.583v-1.172H11.92v-.583h2.093c.858-.028 1.543-.754 1.517-1.622.007-.618-.318-1.176-.847-1.471l-1.898-1.008c-.726-.4-1.167-1.158-1.157-1.982-.035-1.176.904-2.173 2.093-2.21h.592V7.289h.583v1.204h.926v.583H13.73c-.86.026-1.544.754-1.518 1.622-.008.62.318 1.18.85 1.473l1.898 1.009c.723.4 1.163 1.157 1.154 1.978zm5.95-1.464c-.046 4-2.613 7.582-6.39 8.913l-.897.33c-.536.197-1.124.197-1.657 0l-.901-.332c-3.773-1.33-6.34-4.91-6.387-8.907V7.583c.002-.375.226-.712.57-.858 2.4-1.003 4.949-1.499 7.55-1.474 2.605-.032 5.141.471 7.542 1.473.346.147.569.484.57.858v6.111zm-.344-7.507c-2.474-1.033-5.115-1.542-7.769-1.519-2.683-.018-5.3.487-7.776 1.52-.56.238-.924.785-.926 1.394V13.7c.05 4.245 2.773 8.044 6.772 9.453l.898.332c.332.122.68.182 1.029.182.35 0 .698-.06 1.03-.182l.894-.33c4.004-1.411 6.726-5.21 6.775-9.458V7.58c0-.609-.364-1.156-.927-1.395z" transform="translate(-84) translate(84)"/>
            </g>
        </g>
    </g>
</svg>
