<svg xmlns="http://www.w3.org/2000/svg" width="36" height="36" viewBox="0 0 36 36">
    <g fill="none" fill-rule="evenodd">
        <g>
            <g transform="translate(-180 -97) translate(180 97)">
                <rect width="36" height="36" fill="#F7C926" rx="18"/>
                <g fill="#FFF">
                    <path d="M13.813 12.992c.03 1.008-.775 1.862-1.793 1.894h-.088v1.004h-.5v-1.004h-1.214v-.5h1.794c.736-.023 1.322-.646 1.3-1.39.007-.53-.272-1.008-.726-1.26l-1.627-.865c-.621-.342-1-.992-.991-1.698-.03-1.009.774-1.863 1.794-1.894h.507V6.247h.5V7.28h.793v.5H11.77c-.737.022-1.324.646-1.302 1.39-.007.531.273 1.01.73 1.262l1.626.865c.62.343.996.992.989 1.696zm5.1-1.255c-.04 3.43-2.24 6.499-5.478 7.64l-.768.283c-.46.169-.963.169-1.42 0l-.773-.285C7.24 18.235 5.04 15.166 5 11.74V6.5c.001-.322.193-.61.487-.736 2.059-.86 4.243-1.284 6.472-1.263 2.234-.028 4.407.404 6.465 1.263.297.125.488.414.489.735v5.238zm-.295-6.434C16.497 4.417 14.234 3.98 11.959 4c-2.3-.016-4.542.417-6.665 1.302-.48.204-.792.673-.794 1.195v5.245c.043 3.638 2.377 6.895 5.805 8.103l.769.284c.284.104.583.156.882.156.3 0 .599-.052.883-.156l.766-.283c3.432-1.21 5.766-4.466 5.808-8.107V6.498c-.001-.522-.313-.99-.795-1.195z" transform="translate(6 6)"/>
                </g>
            </g>
        </g>
    </g>
</svg>
