<svg xmlns="http://www.w3.org/2000/svg" width="28" height="28" viewBox="0 0 28 28">
    <g fill="none" fill-rule="evenodd">
        <g fill="#1F78AD">
            <g>
                <path d="M19.141 14.238c0 .04-.034.073-.074.073h-1.388v1.388c0 .041-.033.074-.074.074h-.732c-.04 0-.073-.033-.073-.074v-1.388H15.41c-.04 0-.074-.034-.074-.073v-.732c0-.04.034-.073.074-.073H16.8v-1.389c0-.04.033-.074.073-.074h.732c.041 0 .074.033.074.074v1.389h1.388c.041 0 .074.032.074.073v.732zm-.074-1.389h-.805v-.805c0-.362-.295-.657-.657-.657h-.732c-.362 0-.657.295-.657.657v.805h-.805c-.362 0-.657.295-.657.657v.732c0 .362.295.656.657.656h.805v.805c0 .363.295.658.657.658h.732c.362 0 .657-.295.657-.658v-.805h.805c.362 0 .658-.294.658-.656v-.732c0-.362-.296-.657-.658-.657zm2.998 5.118h-9.653l.002-8.19h9.578c.04 0 .073.033.073.074v8.116zm0 1.388c0 .04-.033.074-.073.074h-1.196c-.056-.335-.207-.637-.425-.879h1.694v.805zm-2.998 1.536c-.646 0-1.172-.526-1.172-1.17 0-.646.526-1.17 1.172-1.17.645 0 1.17.524 1.17 1.17 0 .644-.525 1.17-1.17 1.17zm-1.73-1.462H10.56c-.056-.335-.207-.637-.424-.879h7.624c-.217.242-.369.544-.425.879zM8.831 20.89c-.646 0-1.171-.526-1.171-1.17 0-.646.525-1.17 1.171-1.17s1.17.524 1.17 1.17c0 .644-.524 1.17-1.17 1.17zm-1.73-1.462H5.907c-.04 0-.073-.034-.073-.074v-.805h1.692c-.217.242-.368.544-.424.879zm-1.268-3.124c0-.313.122-.607.342-.828l.949-.948h4.704v3.438H5.834v-1.662zm3.045-4.84c.077-.14.224-.226.383-.226h2.567v2.707H7.5l1.38-2.481zm3.535-2.71c0-.647.524-1.172 1.17-1.172.645 0 1.17.525 1.17 1.171v.44h-2.34v-.44zm9.578.438h-6.655v-.439c0-.967-.786-1.754-1.753-1.754-.967 0-1.754.787-1.754 1.754v1.901H9.262c-.37 0-.714.202-.894.526l-1.6 2.88-1.004 1.004c-.332.331-.514.771-.514 1.24v3.05c0 .362.295.657.657.657h1.195c.14.829.862 1.462 1.73 1.462.867 0 1.59-.633 1.729-1.462h6.775c.14.829.863 1.462 1.73 1.462.868 0 1.591-.633 1.73-1.462h1.196c.362 0 .657-.295.657-.657V9.851c0-.363-.295-.658-.657-.658z" transform="translate(-56) translate(56)"/>
            </g>
        </g>
    </g>
</svg>
