<svg xmlns="http://www.w3.org/2000/svg" width="28" height="28" viewBox="0 0 28 28">
    <g fill="none" fill-rule="evenodd">
        <g fill="#1F78AD">
            <g>
                <path d="M13.136 8.754v-.118c.006-.351.24-.659.576-.758v1.635c-.337-.1-.57-.407-.576-.759zm1.728 2.161v.118c-.006.352-.239.659-.576.759v-1.635c.337.1.57.407.576.758zm-.576 1.94v-.473c.646-.11 1.152-.672 1.152-1.349v-.118c0-.676-.506-1.24-1.152-1.349V7.878c.334.1.563.409.564.758 0 .16.129.288.288.288.159 0 .288-.129.288-.288-.001-.667-.482-1.237-1.14-1.349v-.472c0-.16-.129-.288-.288-.288-.159 0-.288.129-.288.288v.472c-.646.11-1.152.672-1.152 1.35v.117c0 .677.506 1.24 1.152 1.349v1.689c-.334-.102-.563-.41-.563-.759 0-.159-.13-.288-.288-.288-.16 0-.288.13-.288.288 0 .667.482 1.237 1.14 1.35v.471c0 .16.128.288.287.288.16 0 .288-.129.288-.288zm-3.152 4.227c1.19.386 2.127 1.31 2.528 2.495-1.787 1.263-4.26.838-5.524-.95-.22-.31-.393-.652-.516-1.013 1.021-.722 2.323-.92 3.512-.532zM8.86 9.799c0-2.839 2.302-5.14 5.14-5.14 2.839 0 5.14 2.301 5.14 5.14 0 2.839-2.301 5.14-5.14 5.14-2.837-.003-5.136-2.303-5.14-5.14zm8.004 7.283c1.19-.387 2.492-.19 3.512.532-.703 2.073-2.954 3.183-5.026 2.48-.361-.123-.703-.297-1.014-.517.402-1.184 1.339-2.11 2.528-2.495zm-6.89 3.576c1.249.406 2.613.251 3.738-.426v3.638c0 .16.13.288.288.288.16 0 .288-.129.288-.288v-3.636c2.15 1.289 4.94.591 6.228-1.56.205-.34.364-.707.473-1.09.032-.112-.007-.233-.1-.305-1.19-.934-2.766-1.213-4.203-.745-1 .325-1.822.978-2.398 1.834v-2.86c3.003-.152 5.427-2.654 5.427-5.709 0-3.152-2.563-5.716-5.715-5.716-3.152 0-5.716 2.564-5.716 5.716 0 3.056 2.425 5.559 5.428 5.709v2.864c-.576-.858-1.398-1.513-2.399-1.838-1.437-.468-3.013-.189-4.203.745-.092.072-.131.193-.099.305.414 1.455 1.525 2.607 2.963 3.074z" transform="translate(-28) translate(28)"/>
            </g>
        </g>
    </g>
</svg>
