<svg xmlns="http://www.w3.org/2000/svg" width="36" height="36" viewBox="0 0 36 36">
    <g fill="none" fill-rule="evenodd">
        <g>
            <g transform="translate(-72 -97) translate(72 97)">
                <rect width="36" height="36" fill="#FF754D" rx="18"/>
                <g fill="#FFF">
                    <path d="M16.407 12.204c0 .034-.03.063-.064.063h-1.19v1.19c0 .035-.028.063-.063.063h-.627c-.035 0-.063-.028-.063-.063v-1.19h-1.19c-.034 0-.064-.03-.064-.063v-.627c0-.035.029-.063.064-.063h1.19v-1.19c0-.035.028-.064.063-.064h.627c.035 0 .063.028.063.064v1.19h1.19c.035 0 .064.027.064.063v.627zm-.064-1.19h-.69v-.69c0-.31-.253-.564-.563-.564h-.627c-.31 0-.563.253-.563.564v.69h-.69c-.31 0-.564.252-.564.563v.627c0 .31.253.563.564.563h.69v.69c0 .31.252.563.563.563h.627c.31 0 .563-.253.563-.563v-.69h.69c.31 0 .564-.253.564-.563v-.627c0-.31-.253-.563-.564-.563zm2.57 4.386H10.64l.001-7.02h8.21c.035 0 .063.029.063.064V15.4zm0 1.19c0 .035-.028.063-.063.063h-1.025c-.048-.286-.177-.545-.364-.753h1.452v.69zm-2.57 1.317c-.554 0-1.004-.45-1.004-1.004 0-.553.45-1.003 1.004-1.003.553 0 1.003.45 1.003 1.003 0 .553-.45 1.004-1.003 1.004zm-1.483-1.254H9.052c-.048-.286-.177-.545-.363-.753h6.535c-.186.208-.316.467-.364.753zm-7.29 1.254c-.553 0-1.004-.45-1.004-1.004 0-.553.45-1.003 1.004-1.003s1.003.45 1.003 1.003c0 .553-.45 1.004-1.003 1.004zm-1.483-1.254H5.063c-.035 0-.063-.028-.063-.063v-.69h1.451c-.186.208-.316.467-.364.753zM5 13.976c0-.268.105-.52.294-.71l.813-.812h4.032V15.4H5v-1.424zm2.61-4.149c.066-.12.192-.194.329-.194h2.2v2.32H6.43L7.61 9.828zm3.03-2.323c0-.554.45-1.004 1.003-1.004.553 0 1.003.45 1.003 1.004v.376H10.64v-.376zm8.21.376h-5.704v-.376c0-.83-.674-1.504-1.503-1.504-.829 0-1.503.675-1.503 1.504v1.63H7.94c-.318 0-.612.172-.766.45l-1.371 2.468-.862.86c-.284.285-.44.662-.44 1.064v2.614c0 .31.253.563.563.563h1.024c.12.71.74 1.254 1.483 1.254.744 0 1.363-.543 1.482-1.254h5.808c.12.71.739 1.254 1.483 1.254.743 0 1.363-.543 1.482-1.254h1.025c.31 0 .563-.252.563-.563V8.444c0-.311-.252-.564-.563-.564z" transform="translate(6 6)"/>
                </g>
            </g>
        </g>
    </g>
</svg>
