<svg xmlns="http://www.w3.org/2000/svg" xmlns:xlink="http://www.w3.org/1999/xlink" width="36" height="36" viewBox="0 0 36 36">
    <defs>
        <path id="gqqghjs72a" d="M0 0H24V24H0z"/>
    </defs>
    <g fill="none" fill-rule="evenodd">
        <g>
            <g transform="translate(-108 -97) translate(108 97)">
                <rect width="36" height="36" fill="#4C4794" rx="18"/>
                <g transform="translate(6 6)">
                    <mask id="94wq112p6b" fill="#fff">
                        <use xlink:href="#gqqghjs72a"/>
                    </mask>
                    <path fill="#FFF" d="M17.104 11.3c-.997 0-1.809-.811-1.809-1.809 0-.997.812-1.809 1.809-1.809.998 0 1.809.812 1.809 1.809 0 .998-.811 1.81-1.809 1.81m0-4.119c-1.273 0-2.309 1.036-2.309 2.309 0 1.189.902 2.17 2.059 2.296v5.254c0 .619-.504 1.123-1.123 1.123s-1.123-.504-1.123-1.123v-2.586c0-1.084-.882-1.966-1.966-1.966-1.083 0-1.965.882-1.965 1.966v3.959c0 .619-.504 1.122-1.123 1.122-.62 0-1.123-.503-1.123-1.122v-5.25c1.914-.129 3.432-1.727 3.432-3.673V6.746c0-1.19-.903-2.171-2.06-2.296V4h-.5v1.716h.5v-.762c.88.122 1.56.879 1.56 1.792V9.49c0 1.755-1.428 3.182-3.182 3.182S5 11.246 5 9.49V6.746c0-.913.679-1.67 1.559-1.792v.762h.5V4h-.5v.45C5.403 4.575 4.5 5.557 4.5 6.746V9.49c0 1.946 1.518 3.544 3.431 3.674v5.249c0 .894.728 1.622 1.622 1.622.895 0 1.624-.728 1.624-1.622v-3.96c0-.808.658-1.465 1.466-1.465.807 0 1.465.657 1.465 1.466v2.586c0 .895.728 1.623 1.623 1.623s1.623-.728 1.623-1.623v-5.254c1.157-.125 2.059-1.107 2.059-2.296 0-1.273-1.035-2.309-2.309-2.309" mask="url(#94wq112p6b)"/>
                </g>
            </g>
        </g>
    </g>
</svg>
