<svg xmlns="http://www.w3.org/2000/svg" width="36" height="36" viewBox="0 0 36 36">
    <g fill="none" fill-rule="evenodd">
        <g>
            <g transform="translate(-36 -97) translate(36 97)">
                <rect width="36" height="36" fill="#FF7A85" rx="18"/>
                <g fill="#FFF">
                    <path d="M11.893 13.274c0-.533-.738-.983-1.61-.983-.873 0-1.61.45-1.61.982l-.538.034c-.078-.634-.635-1.082-1.272-1.018l-.026.002-.026-.002c-.636-.063-1.195.384-1.272 1.018L5 13.272v-.313c0-4.098 3.006-7.328 6.892-7.471V4.5h.541v.988c3.887.144 6.894 3.374 6.894 7.472v.313l-.538.034c-.079-.633-.636-1.081-1.272-1.018l-.027.002-.026-.002c-.632-.063-1.194.384-1.272 1.018l-.539-.034c0-.532-.737-.982-1.61-.982-.872 0-1.61.45-1.61.982v4.7c0 .37.301.67.67.67.37 0 .67-.3.67-.67v-.313h.54v.313c0 .667-.542 1.21-1.21 1.21-.667 0-1.21-.543-1.21-1.21v-4.7zm.27-7.25c-3.451 0-6.208 2.631-6.58 6.126.334-.286.779-.441 1.254-.402.647-.053 1.242.256 1.572.767.366-.46 1.06-.765 1.874-.765.819 0 1.516.308 1.88.773.365-.465 1.063-.773 1.88-.773.814 0 1.508.305 1.874.765.331-.511.926-.82 1.573-.767.474-.04.92.116 1.254.402-.372-3.495-3.13-6.126-6.58-6.126z" transform="translate(6 6)"/>
                </g>
            </g>
        </g>
    </g>
</svg>
