<?xml version="1.0" encoding="UTF-8"?>
<svg width="375px" height="235px" viewBox="0 0 375 235" version="1.1" xmlns="http://www.w3.org/2000/svg" xmlns:xlink="http://www.w3.org/1999/xlink">
    <!-- Generator: sketchtool 59.1 (101010) - https://sketch.com -->
    <title>390C6BC8-D053-4E5C-8F52-18824020D45D</title>
    <desc>Created with sketchtool.</desc>
    <defs>
        <path d="M0,0 L375,0 L375,222.300361 C343.666667,230.766787 308,235 268,235 C208,235 156.471011,223.423611 101,222.300361 C64.019326,221.551528 30.3526594,225.784741 0,235 L0,0 Z" id="path-1"></path>
        <path d="M237.532375,304.215617 C309.22037,304.215617 409.115366,328.757219 452.662041,295.665543 C488.792782,268.209331 470.025144,197.875131 470.025144,158.681183 C470.025144,149.66834 454.84154,151.292058 446.572188,144.460882 C431.415624,131.940291 424.574393,110.293201 413.927002,96.5174207 C374.674033,45.7312422 332.099704,0 239.678906,0 C184.041138,0 139.621097,63.0054766 99.1399109,84.1204533 C54.6354862,107.33395 34.9865777,118.697162 22.8997193,144.460882 C21.3975254,147.66288 21.390982,165.664154 16.3417436,166.860626 C11.8515138,167.924634 8.69857391,176.583553 8.69857391,181.038326 C8.69857391,217.17202 -14.8714107,263.60789 16.3417436,290.097558 C59.7911168,326.971739 161.200223,304.215617 237.532375,304.215617 Z" id="path-3"></path>
    </defs>
    <g id="UI" stroke="none" stroke-width="1" fill="none" fill-rule="evenodd">
        <g id="1.0-home-(1)" transform="translate(0.000000, -135.000000)">
            <g id="Group-[40v]" transform="translate(0.000000, 135.000000)">
                <g id="01">
                    <g id="home_background">
                        <mask id="mask-2" fill="white">
                            <use xlink:href="#path-1"></use>
                        </mask>
                        <use id="Mask" fill="#E86487" xlink:href="#path-1"></use>
                        <g id="comp-/-logo" opacity="0.200000003" mask="url(#mask-2)">
                            <g transform="translate(-50.000000, -56.000000)" id="Group-37">
                                <g>
                                    <mask id="mask-4" fill="white">
                                        <use xlink:href="#path-3"></use>
                                    </mask>
                                    <g id="Oval"></g>
                                    <path d="M239.465703,-16.358885 C364.611574,-16.358885 467.158702,78.7859498 477.178899,199.530292 C473.341377,204.650193 467.798289,207.210144 461.828809,208.703448 C440.50924,213.183362 434.113369,194.837049 416.418127,183.103941 C398.722885,171.370834 382.520012,166.89092 366.103944,150.46457 C359.494878,143.851364 357.789312,132.758244 351.393441,125.71838 C342.652418,116.331894 337.322526,113.985272 325.596763,109.292029 C304.703585,101.185519 287.008343,95.2123002 269.739492,80.9192421 C266.754752,78.5726206 259.93249,75.3726822 253.536619,74.306036 C250.765075,73.6660484 249.485901,74.0927068 248.633118,75.159353 C246.07477,78.5726206 243.729617,82.4125466 241.384465,86.2524727 C240.744878,87.3191188 238.612921,90.305728 236.907355,91.7990326 C233.496224,94.7856417 229.445506,98.6255678 226.247571,100.545531 C208.97872,111.211992 185.953585,120.17182 176.146583,138.091475 C174.227822,141.291413 155.466601,150.251241 150.989492,153.664508 C144.167229,159.424397 137.344967,164.970957 130.309509,170.090859 C123.700443,174.997431 114.533028,182.677283 107.710766,187.797184 C104.086439,186.517209 100.248917,185.237234 96.837786,184.597246 C88.7363497,182.890612 81.9140876,176.704065 74.8786298,172.43748 C65.9244108,166.677591 66.5639978,166.037603 63.7924538,164.330969 C61.4473012,163.050994 60.1681271,162.197677 59.1021486,161.771019 C52.4930822,157.717763 52.0666908,161.771019 42.6860804,167.530908 C34.7978398,172.43748 25.6304251,180.543991 18.808163,186.943867 C13.4782707,192.063769 7.93518275,197.396999 2.17889908,202.943559 C9.42755258,80.7059128 112.827463,-16.358885 239.465703,-16.358885 M46.8872594,356.329678 C28.5363119,331.543488 15.093176,302.911166 7.62476716,271.714755 C9.75859825,272.142103 12.3191956,272.9968 16.5868578,274.278844 C30.670143,278.765999 57.1296486,287.526635 76.1207454,278.765999 C88.2835827,272.9968 109.408511,268.509645 117.517069,265.304534 C125.198861,262.099423 141.415977,269.364341 122.211497,256.543898 L122.211497,256.543898 C121.998114,256.330224 121.571348,256.330224 121.144582,256.11655 C120.504432,255.902876 119.864283,255.689202 119.224134,255.475528 C117.303686,255.04818 101.940102,258.039616 98.739355,257.612268 C97.6724395,257.398594 96.605524,256.971246 95.7519915,256.330224 C87.4300502,251.843069 122.851646,224.065443 124.131945,217.227873 C113.889556,218.296244 105.567615,224.706465 96.3921408,228.766272 C85.7229853,233.467101 73.9869143,233.680775 62.4642264,233.680775 C49.2344736,233.680775 39.2054674,243.937129 27.4693964,248.637958 C21.4946693,251.202047 11.4656631,253.552461 4.85078673,257.825942 C4.42402051,255.04818 3.99725429,252.056743 3.57048807,249.27898 C3.78387118,244.364477 4.2106374,238.381604 5.49093606,231.330361 C8.05153338,216.159503 14.2396436,204.621105 27.6827795,186.458811 C27.6827795,186.458811 40.9125323,170.646931 48.5943242,165.518754 C51.5816878,163.382014 54.7824344,160.604251 57.9831811,162.527318 C61.3973108,164.664058 57.1296486,177.698175 66.0917392,179.834915 C71.426317,181.11696 66.7318886,190.09127 68.6523366,195.433121 C70.5727846,200.988646 46.24711,222.356051 52.6486033,224.920139 C56.2761162,226.415857 72.4932325,218.296244 81.0285569,215.518481 C88.4969658,213.168067 96.605524,212.954393 104.927465,205.262127 C113.46279,197.356187 121.998114,192.655358 121.998114,192.655358 C128.826374,186.886159 135.654633,180.903286 142.482893,174.920412 C149.097769,168.937539 155.499262,162.954666 161.900756,156.971792 C165.955035,153.125659 184.305982,142.869305 185.799664,139.45052 C194.334988,120.860878 216.526832,110.177176 233.170714,98.4251035 C236.158078,96.288363 239.572208,91.801208 241.492656,89.2371195 C243.413104,86.6730309 245.333551,82.8268981 246.400467,81.5448538 C248.534298,79.1944393 248.961064,77.2713729 251.308279,76.2030026 C252.375194,75.7756545 256.002707,75.7756545 257.496389,77.4850469 C263.04435,83.2542462 270.299375,88.1687492 270.512758,94.1516226 C270.939525,103.553281 296.972264,111.45922 302.946991,118.724138 C305.294205,121.715575 306.787887,124.493337 307.854803,127.484774 C303.373757,125.775381 298.892712,123.424967 294.838433,120.647204 C292.277836,118.724138 286.089725,119.151486 282.888979,118.724138 C273.926888,117.014746 275.847336,121.288226 280.968531,126.416404 C286.089725,131.758255 291.851069,136.24541 296.545498,142.228283 C301.880076,148.852179 301.453309,154.19403 302.946991,162.099969 C304.440673,170.433257 309.561868,177.911849 313.616147,185.390441 C317.883809,192.869032 317.457043,200.774972 319.804257,208.894586 C322.364854,217.014199 329.193114,223.851769 334.954458,229.834642 C339.862269,234.962819 350.958191,247.355914 356.932918,244.578151 C363.334411,242.014063 371.229586,249.706329 373.790184,247.569588 C376.137398,245.432848 367.38869,234.962819 370.80282,231.971383 C374.21695,228.766272 388.940384,233.894449 391.927748,243.296107 C395.341878,254.407158 394.915111,255.261854 394.488345,263.381468 C394.061579,268.723319 392.141131,272.783126 388.513618,276.629258 C384.032573,281.116413 374.003567,288.381331 375.924015,295.646249 C385.312872,290.731746 395.341878,290.304397 405.79765,290.518071 C415.826656,290.731746 423.295065,286.671939 430.123325,279.407021 C433.110688,276.20191 441.646013,266.15923 446.553824,271.287407 C449.541188,274.278844 440.79248,286.671939 450.39472,284.10785 C456.796213,282.398458 462.344174,277.483955 468.105518,274.278844 C469.5992,273.424148 471.092882,272.355778 472.159797,271.501081 C464.691388,303.12484 450.821486,332.184511 431.830389,357.398048 L438.872032,363.167247 C472.37318,320.218764 492.431193,266.15923 492.431193,207.398867 C492.431193,67.6560408 379.338144,-45.804878 239.785591,-45.804878 C100.233037,-45.804878 -13.0733945,67.4423667 -13.0733945,207.398867 C-13.0733945,265.731882 6.55785161,319.150394 39.6322336,361.885203 L46.8872594,356.329678 Z M150.93393,356.029862 C150.507641,358.756697 146.884191,381.620158 142.621309,406.790941 C135.161265,405.112889 127.70122,402.386054 119.175456,397.77141 C110.862835,393.156767 104.468511,388.542123 99.1399083,383.088454 C118.749167,366.307932 136.440129,350.995706 138.571571,349.317653 C143.900174,344.912766 146.457903,343.863984 149.015633,345.122523 C151.360218,346.381062 151.99965,349.107897 150.93393,356.029862 M165.267208,318.938402 C165.267208,318.938402 164.624365,318.511442 163.981521,318.084483 C163.338677,317.871003 162.695833,317.444043 162.695833,317.230563 C162.695833,317.444043 162.695833,317.444043 162.695833,317.444043 C150.696084,310.826165 138.910615,311.253125 125.410897,321.073202 C106.768428,334.522437 16.3417431,410.521291 16.3417431,410.521291 L42.484055,432.936683 C42.484055,432.936683 56.8408984,420.341367 74.6262417,404.970813 C83.4117728,412.65609 93.0544288,419.487448 104.197054,425.678366 C115.125397,431.655804 126.268022,436.352362 137.196365,439.341081 C133.553584,462.610393 130.339365,481.610106 130.339365,481.610106 L162.910115,491.857143 C162.910115,491.857143 180.052614,375.297103 181.766864,352.454751 C183.052552,335.803317 177.052677,325.55628 165.267208,318.938402 M257.110092,496.219512 L257.110092,330.449477 L223.337156,330.449477 L223.337156,496.219512 L257.110092,496.219512 Z M358.796879,397.981167 C350.450238,402.59581 342.959663,405.112889 335.469088,406.790941 C331.402776,381.620158 327.764496,358.756697 327.336463,356.029862 C326.266381,349.317653 326.908431,346.590819 329.262611,345.122523 C331.616792,343.863984 334.399006,344.912766 339.5354,349.317653 C341.889581,351.205462 359.652945,366.307932 379.12844,383.29821 C373.77803,388.542123 367.357537,393.366523 358.796879,397.981167 M315.597313,317.340095 C315.597313,317.553702 314.953636,317.767309 314.309959,318.194524 C313.666282,318.408131 313.237163,318.835345 313.237163,318.835345 C301.221855,325.457167 295.214201,335.71031 296.501555,352.158062 C298.218028,375.441242 315.168195,491.857143 315.168195,491.857143 L347.781175,481.603999 C347.781175,481.603999 344.777348,462.592962 341.129844,439.523389 C352.286916,436.105675 363.443988,431.619924 374.386501,425.638924 C385.329014,419.657924 395.198732,412.608887 403.781095,404.91903 C421.589499,420.298745 435.964957,433.115174 435.964957,433.115174 L461.926606,411.113637 C461.926606,411.113637 371.811792,334.642275 352.930593,321.185024 C339.413371,311.145487 327.612622,310.93188 315.597313,317.340095 M321.664904,270.73741 C315.923719,259.158301 295.297982,268.164275 284.878796,258.515017 C281.901885,255.941881 275.948064,250.366755 272.758517,240.931925 C269.781607,231.925951 265.316241,224.6354 257.873965,218.845846 C244.477868,208.338876 213.007672,192.25678 215.134036,170.813985 C216.197218,161.164727 227.679587,159.234875 232.35759,152.158753 C235.3345,148.084622 235.547136,142.509495 238.94932,138.86422 C242.776776,134.575661 237.460865,134.575661 233.633408,134.146805 C225.765859,133.932377 219.812038,142.509495 213.220308,146.15477 C202.375848,151.729897 192.807208,160.092587 180.474293,162.665722 C176.859473,163.523434 158.785374,169.098561 170.693016,172.100552 C178.773201,174.244832 187.916569,173.601548 194.720936,179.391103 C203.439031,186.896081 210.456034,196.545339 219.174129,204.050317 C223.639495,207.91002 227.892224,211.340867 231.507044,216.058282 C235.547136,221.418981 235.121864,227.637392 238.098774,233.212519 C241.075684,238.573217 246.816869,233.855802 250.644325,236.857794 C262.551967,246.721479 245.966323,251.653322 241.713594,256.370737 C236.185046,262.589148 235.121864,266.448851 224.702677,270.73741 C220.237311,272.667262 190.893479,276.312537 187.27866,278.885672 C183.66384,281.458808 185.577568,282.530947 186.428114,283.603087 C187.491296,284.675227 192.381935,286.390651 194.720936,286.390651 C207.053851,287.677218 244.903141,294.753341 252.77069,285.104083 C258.086601,278.456816 265.954151,277.599105 274.672245,279.957812 C280.838703,281.458808 292.958981,280.386668 303.590804,275.883681 C309.544625,273.524973 326.342906,273.310546 321.664904,270.73741" id="Shape" fill="#000000" fill-rule="nonzero" mask="url(#mask-4)"></path>
                                </g>
                            </g>
                        </g>
                    </g>
                </g>
            </g>
        </g>
    </g>
</svg>