<svg xmlns="http://www.w3.org/2000/svg" width="24" height="24" viewBox="0 0 24 24">
    <g fill="none" fill-rule="evenodd">
        <g fill="#5B636B">
            <g>
                <g>
                    <path d="M12 16.8c.994 0 1.8.806 1.8 1.8s-.806 1.8-1.8 1.8-1.8-.806-1.8-1.8.806-1.8 1.8-1.8zm0-6.6c.994 0 1.8.806 1.8 1.8s-.806 1.8-1.8 1.8-1.8-.806-1.8-1.8.806-1.8 1.8-1.8zm0-6.6c.994 0 1.8.806 1.8 1.8s-.806 1.8-1.8 1.8-1.8-.806-1.8-1.8.806-1.8 1.8-1.8z" transform="translate(-330 -104) translate(326 100) translate(4 4)"/>
                </g>
            </g>
        </g>
    </g>
</svg>
