<svg xmlns="http://www.w3.org/2000/svg" width="28" height="28" viewBox="0 0 28 28">
    <g fill="none" fill-rule="evenodd">
        <g fill="#1F78AD">
            <path d="M11.997 14.339c-1.018 0-1.878.525-1.878 1.147l-.629.038c-.09-.739-.74-1.26-1.484-1.187l-.03.003-.03-.003c-.742-.073-1.394.448-1.484 1.187l-.628-.038v-.366c0-4.78 3.507-8.55 8.04-8.717V5.25h.631v1.153c4.535.167 8.043 3.936 8.043 8.717v.366l-.628.038c-.091-.738-.741-1.26-1.483-1.187l-.032.003-.03-.003c-.738-.073-1.394.448-1.485 1.187l-.628-.038c0-.622-.86-1.147-1.878-1.147-1.018 0-1.878.525-1.878 1.147v5.482c0 .432.35.782.782.782.43 0 .78-.35.78-.782v-.365h.631v.365c0 .78-.633 1.413-1.411 1.413-.78 0-1.413-.634-1.413-1.413v-5.483c0-.621-.86-1.146-1.878-1.146zm2.193-7.311c-4.026 0-7.242 3.07-7.676 7.147.39-.334.908-.515 1.462-.468.755-.063 1.45.298 1.835.894.427-.537 1.237-.893 2.186-.893.955 0 1.769.36 2.193.902.426-.542 1.24-.902 2.194-.902.95 0 1.759.356 2.186.893.386-.596 1.08-.957 1.835-.894.553-.047 1.072.134 1.463.468-.434-4.077-3.65-7.147-7.678-7.147z"/>
        </g>
    </g>
</svg>
